<svg xmlns="http://www.w3.org/2000/svg" width="45" height="45" viewBox="0 0 45 45">
  <g fill="#fff" stroke="#000" stroke-width="1.5" stroke-linecap="round" stroke-linejoin="miter">
    <path d="m22.5 9c-2.21 0-4 1.79-4 4 0 .89.29 1.71.78 2.38-1.95 1.12-3.28 3.21-3.28 5.62 0 2.03.94 3.84 2.41 5.03-3 1.06-4.91 2.97-4.91 5.97h9c0-3-1.91-4.91-4.91-5.97 1.47-1.19 2.41-3 2.41-5.03 0-2.41-1.33-4.5-3.28-5.62.49-.67.78-1.49.78-2.38 0-2.21-1.79-4-4-4z" fill="#fff" stroke-linejoin="miter"/>
  </g>
</svg>
